<svg width="320" height="320" viewBox="0 0 320 320" fill="none" xmlns="http://www.w3.org/2000/svg">
<g clip-path="url(#clip0_9_7841)">
<path d="M203.29 204.75L196.3 235.87C193.92 236.2 186.11 237.16 169.33 238.25C160.64 238.82 155.08 239.4 151.03 239.83C145.38 240.42 143.04 240.67 139.63 240.08C134.84 239.25 128.74 238.64 126.33 238.41C126.38 238.07 126.42 237.73 126.42 237.38V200.85C130.72 198.12 133.46 195.68 134.92 194.23C135.06 196.34 135.3 198.45 135.87 200.49C136.55 202.96 137.76 205.19 139.4 207.15C142.73 211.14 147.46 214.19 152.37 215.87C154.91 216.74 157.67 216.86 160.34 216.86C163.04 216.87 165.74 216.64 168.4 216.14C171 215.66 173.55 214.9 175.98 213.84C178.34 212.82 180.29 211.44 181.76 209.31C183.39 206.94 184.75 204.31 185.82 201.63C186.79 199.21 187.44 196.67 187.58 194.07C189.79 196.27 194.75 200.57 203.29 204.75Z" fill="#FFF1E3"/>
<path d="M200.98 236.39C200.24 239.35 202.05 242.35 205.01 243.09C205.46 243.2 205.91 243.25 206.35 243.25C208.83 243.25 211.09 241.57 211.72 239.06C212.45 236.1 210.64 233.09 207.68 232.36C204.72 231.62 201.72 233.43 200.98 236.39ZM198.55 237.26L206.18 203.27C206.75 202.71 207.98 201.79 209 202.04C209.98 202.29 210.92 202.62 212.01 203.02C213.23 203.46 214.62 203.97 216.45 204.48C219.72 205.38 221.62 207.25 221.77 208.04C221.9 208.71 221.26 210.84 220.59 212.4L213.59 240.44C213.23 241.9 212.27 243.15 210.95 243.88L207.54 245.79C205.53 246.91 202.77 246.22 201.51 244.29L199.08 240.53C198.46 239.57 198.27 238.39 198.55 237.26Z" fill="#3A486B"/>
<path d="M207.08 234.78C208.7 235.19 209.69 236.83 209.29 238.46C208.89 240.08 207.24 241.06 205.62 240.66C203.99 240.26 203 238.61 203.41 236.99C203.81 235.37 205.46 234.38 207.08 234.78Z" fill="#B1C0E7"/>
<path d="M262.63 265.61H234.03C233.75 263.72 232.84 259.97 229.87 256.72C227.84 254.5 226.7 249.97 225.7 245.97C224.94 242.95 224.28 240.33 223.28 238.86C221.41 236.11 218.75 235.17 217.55 234.88L222.92 213.29C223.03 213.04 223.22 212.56 223.43 211.99C243.57 219.92 260.31 248.55 262.63 265.61Z" fill="#FFF1E3"/>
<path d="M175.28 250.27V258.13C175.28 258.92 174.63 259.57 173.84 259.57H147.13C146.33 259.57 145.69 258.92 145.69 258.13V250.27C145.69 249.48 146.33 248.83 147.13 248.83H173.84C174.63 248.83 175.28 249.48 175.28 250.27Z" fill="#3A486B"/>
<path d="M195.93 238.44C195.96 239.66 196.31 240.85 196.98 241.88L199.41 245.64C200.74 247.69 203.06 248.83 205.4 248.83C206.55 248.83 207.71 248.56 208.76 247.97L212.17 246.07C214.08 245 215.49 243.17 216.01 241.04L216.95 237.3C217.75 237.49 219.79 238.17 221.21 240.26C221.96 241.37 222.6 243.9 223.27 246.58C224.35 250.86 225.57 255.72 228.02 258.4C230.35 260.96 231.19 263.94 231.49 265.61H87.01C87.73 261.38 93.04 253.37 96.35 248.4C98.2 245.61 99.66 243.41 100.21 242.17C101.14 240.07 104.23 239.14 106.13 238.82C106.32 240.01 106.9 241.12 107.78 241.95L111.42 245.35C112.75 246.6 114.49 247.22 116.24 247.22C117.99 247.22 119.72 246.6 121.05 245.35L124.27 242.34C124.74 241.9 125.14 241.39 125.46 240.84C127.17 241 134 241.65 139.21 242.54C140.72 242.8 142.05 242.91 143.47 242.91C145.57 242.91 147.88 242.67 151.29 242.31C155.33 241.89 160.85 241.31 169.49 240.75C185.07 239.73 192.87 238.85 195.93 238.44ZM177.78 258.13V250.27C177.78 248.1 176.01 246.33 173.84 246.33H147.13C144.95 246.33 143.19 248.1 143.19 250.27V258.13C143.19 260.3 144.95 262.07 147.13 262.07H173.84C176.01 262.07 177.78 260.3 177.78 258.13Z" fill="#B77131"/>
<path d="M116.24 239.02C117.913 239.02 119.27 237.663 119.27 235.99C119.27 234.317 117.913 232.96 116.24 232.96C114.567 232.96 113.21 234.317 113.21 235.99C113.21 237.663 114.567 239.02 116.24 239.02Z" fill="#B1C0E7"/>
<path d="M106.05 209.93V236.31C104.11 236.6 99.49 237.64 97.93 241.16C97.46 242.2 95.98 244.43 94.27 247.01C89.24 254.58 85.02 261.25 84.48 265.61H60.03C62.41 249.16 80.98 216.89 103.49 210.68C104.37 210.44 105.21 210.19 106.05 209.93Z" fill="#FFF1E3"/>
<path d="M122.56 240.52L119.34 243.53C117.66 245.11 114.81 245.11 113.13 243.53L109.49 240.12C108.9 239.56 108.55 238.78 108.55 237.96V207.98L108.5 207.8C108.5 207.8 108.16 206.69 108.58 205.76C109.09 204.64 111.54 201.37 114.46 201.29C116.73 201.23 118.4 200.29 119.73 199.53C120.64 199.02 121.42 198.58 122.1 198.58C123.15 198.58 123.75 199.93 123.92 200.37V237.38C123.92 238.57 123.42 239.71 122.56 240.52ZM110.71 235.99C110.71 239.04 113.19 241.52 116.24 241.52C119.29 241.52 121.77 239.04 121.77 235.99C121.77 232.94 119.29 230.46 116.24 230.46C113.19 230.46 110.71 232.94 110.71 235.99Z" fill="#3A486B"/>
<path d="M205.01 243.09C202.05 242.35 200.24 239.35 200.98 236.39C201.72 233.43 204.72 231.62 207.68 232.36C210.64 233.09 212.45 236.1 211.72 239.06C211.09 241.57 208.83 243.25 206.35 243.25C205.91 243.25 205.46 243.2 205.01 243.09ZM205.62 240.66C207.24 241.06 208.89 240.08 209.29 238.46C209.69 236.83 208.7 235.19 207.08 234.78C205.46 234.38 203.81 235.37 203.41 236.99C203 238.61 203.99 240.26 205.62 240.66Z" fill="black"/>
<path d="M175.28 250.27C175.28 249.48 174.63 248.83 173.84 248.83H147.13C146.33 248.83 145.69 249.48 145.69 250.27V258.13C145.69 258.92 146.33 259.57 147.13 259.57H173.84C174.63 259.57 175.28 258.92 175.28 258.13V250.27ZM147.13 262.07C144.95 262.07 143.19 260.3 143.19 258.13V250.27C143.19 248.1 144.95 246.33 147.13 246.33H173.84C176.01 246.33 177.78 248.1 177.78 250.27V258.13C177.78 260.3 176.01 262.07 173.84 262.07H147.13Z" fill="black"/>
<path d="M113.21 235.99C113.21 237.66 114.56 239.02 116.24 239.02C117.92 239.02 119.27 237.66 119.27 235.99C119.27 234.32 117.91 232.96 116.24 232.96C114.57 232.96 113.21 234.32 113.21 235.99ZM121.77 235.99C121.77 239.04 119.29 241.52 116.24 241.52C113.19 241.52 110.71 239.04 110.71 235.99C110.71 232.94 113.19 230.46 116.24 230.46C119.29 230.46 121.77 232.94 121.77 235.99Z" fill="black"/>
<path d="M113.13 243.53C114.81 245.11 117.66 245.11 119.34 243.53L122.56 240.52C123.42 239.71 123.92 238.57 123.92 237.38V200.37C123.75 199.93 123.15 198.58 122.1 198.58C121.42 198.58 120.64 199.02 119.73 199.53C118.4 200.29 116.73 201.23 114.46 201.29C111.54 201.37 109.09 204.64 108.58 205.76C108.16 206.69 108.49 207.79 108.5 207.8L108.55 207.98V237.96C108.55 238.78 108.9 239.56 109.49 240.12L113.13 243.53ZM217.55 234.88C218.75 235.17 221.41 236.11 223.28 238.86C224.28 240.33 224.94 242.95 225.7 245.97C226.7 249.97 227.84 254.5 229.87 256.72C232.84 259.97 233.75 263.72 234.03 265.61H262.63C260.31 248.55 243.57 219.92 223.43 211.99C223.22 212.56 223.03 213.04 222.92 213.29L217.55 234.88ZM60.03 265.61H84.48C85.02 261.25 89.24 254.58 94.27 247.01C95.98 244.43 97.46 242.2 97.93 241.16C99.49 237.64 104.11 236.6 106.05 236.31V209.93C105.21 210.19 104.37 210.44 103.49 210.68C80.98 216.89 62.41 249.16 60.03 265.61ZM152.37 215.87C147.46 214.19 142.73 211.14 139.4 207.15C137.76 205.19 136.55 202.96 135.87 200.49C135.3 198.45 135.06 196.34 134.92 194.23C133.46 195.68 130.72 198.12 126.42 200.85V237.38C126.42 237.73 126.38 238.07 126.33 238.41C128.74 238.64 134.84 239.25 139.63 240.08C143.04 240.67 145.38 240.42 151.03 239.83C155.08 239.4 160.64 238.82 169.33 238.25C186.11 237.16 193.92 236.2 196.3 235.87L203.29 204.75C194.75 200.57 189.79 196.27 187.58 194.07C187.44 196.67 186.79 199.21 185.82 201.63C184.75 204.31 183.39 206.94 181.76 209.31C180.29 211.44 178.34 212.82 175.98 213.84C173.55 214.9 171 215.66 168.4 216.14C165.74 216.64 163.04 216.87 160.34 216.86C157.67 216.86 154.91 216.74 152.37 215.87ZM201.51 244.29C202.77 246.22 205.53 246.91 207.54 245.79L210.95 243.88C212.27 243.15 213.23 241.9 213.59 240.44L220.59 212.4C221.26 210.84 221.9 208.71 221.77 208.04C221.62 207.25 219.72 205.38 216.45 204.48C214.62 203.97 213.23 203.46 212.01 203.02C210.92 202.62 209.98 202.29 209 202.04C207.98 201.79 206.75 202.71 206.18 203.27L198.55 237.26C198.27 238.39 198.46 239.57 199.08 240.53L201.51 244.29ZM162.27 215.83C164.88 215.72 167.48 215.39 170.02 214.78C172.41 214.2 174.82 213.42 177 212.26C178.08 211.68 179.08 210.98 179.91 210.07C180.75 209.13 181.41 208.05 182.04 206.97C184.54 202.73 186.59 198.05 186.61 193.05C186.37 192.78 186.22 192.61 186.19 192.57L188.14 191.01C188.19 191.06 192.89 196.76 203.85 202.23L203.89 202.07L204.1 201.83C204.21 201.71 206.72 198.9 209.61 199.62C210.71 199.89 211.71 200.25 212.86 200.67C214.04 201.1 215.38 201.58 217.12 202.07C220.83 203.1 223.82 205.41 224.23 207.58C224.33 208.13 224.26 208.84 224.12 209.57C245.74 217.95 263.64 249.22 265.27 266.74L265.4 268.11H57.25L57.38 266.74C59.1 248.2 79.4 214.74 102.83 208.27C103.88 207.98 104.9 207.68 105.89 207.37C105.83 206.65 105.87 205.68 106.31 204.72C107.14 202.91 110.32 198.9 114.39 198.79C116.04 198.75 117.29 198.04 118.5 197.36C119.61 196.73 120.76 196.08 122.1 196.08C123.83 196.08 125 197.19 125.7 198.34C131.63 194.48 134.24 191.3 134.27 191.26L135.38 192.15C135.56 192.17 135.73 192.28 135.79 192.49L136.22 192.83C136.22 192.83 136.08 193 135.86 193.24C136 195.89 136.26 198.55 137.09 201.07C137.95 203.71 139.52 205.97 141.46 207.93C143.23 209.71 145.24 211.24 147.43 212.48C149.63 213.72 152.01 214.91 154.5 215.42C157.03 215.92 159.71 215.93 162.27 215.83ZM116.24 247.22C114.49 247.22 112.75 246.6 111.42 245.35L107.78 241.95C106.9 241.12 106.32 240.01 106.13 238.82C104.23 239.14 101.14 240.07 100.21 242.17C99.66 243.41 98.2 245.61 96.35 248.4C93.04 253.37 87.73 261.38 87.01 265.61H231.49C231.19 263.94 230.35 260.96 228.02 258.4C225.57 255.72 224.35 250.86 223.27 246.58C222.6 243.9 221.96 241.37 221.21 240.26C219.79 238.17 217.75 237.49 216.95 237.3L216.01 241.04C215.49 243.17 214.08 245 212.17 246.07L208.76 247.97C207.71 248.56 206.55 248.83 205.4 248.83C203.06 248.83 200.74 247.69 199.41 245.64L196.98 241.88C196.31 240.85 195.96 239.66 195.93 238.44C192.87 238.85 185.07 239.73 169.49 240.75C160.85 241.31 155.33 241.89 151.29 242.31C147.88 242.67 145.57 242.91 143.47 242.91C142.05 242.91 140.72 242.8 139.21 242.54C134 241.65 127.17 241 125.46 240.84C125.14 241.39 124.74 241.9 124.27 242.34L121.05 245.35C119.72 246.6 117.98 247.22 116.24 247.22Z" fill="black"/>
</g>
<defs>
<clipPath id="clip0_9_7841">
<rect width="208.65" height="214.36" fill="white" transform="translate(57 54)"/>
</clipPath>
</defs>
</svg>
