<svg width="320" height="320" viewBox="0 0 320 320" fill="none" xmlns="http://www.w3.org/2000/svg">
<g clip-path="url(#clip0_5_4784)">
<path d="M214.7 152.91C213.57 148.41 211.83 143.57 210.2 138.37C210.2 138.37 209.19 139.53 205.98 140.34C202.77 141.15 199.58 140.44 199.58 140.44L199.11 142.77C199.11 159.31 187.08 170.27 187.08 170.27V187.05C207.06 187.6 220.82 177.13 214.72 152.91H214.7Z" fill="black"/>
<path d="M124.01 142.77L123.54 140.44C123.54 140.44 120.35 141.15 117.14 140.34C113.93 139.53 112.92 138.37 112.92 138.37C111.29 143.57 109.55 148.4 108.42 152.91C102.32 177.13 116.07 187.6 136.06 187.05V170.27C136.06 170.27 124.03 159.31 124.03 142.77H124.01Z" fill="black"/>
<path d="M159.73 75.99C164.05 82.96 177.81 103.18 199.07 116.06L199.14 116.02L199.1 119.07C199.1 119.07 199.83 117.54 205.98 117.77C207.02 117.81 205.89 115.68 205.89 114.61C205.89 99.65 202.82 87.76 202.82 87.76C187.99 52.02 161.49 60.17 155.48 62.57C154.71 62.88 153.9 63.02 153.07 62.97C149.44 62.75 137.79 63.59 123.91 80.49C111.84 95.19 115.31 106.82 115.79 119.06C115.79 119.06 118.07 117.22 125.1 117.76L125.59 106.23L126.29 106.28L140.38 107.38C141.15 107.44 141.83 106.88 141.91 106.12C142.44 101.34 146.93 81.36 155.66 75.1C153.13 79.33 147.1 91.1 150.14 103.12C150.28 103.69 150.79 104.06 151.35 104.06C151.45 104.06 151.55 104.05 151.66 104.02C152.33 103.85 152.73 103.17 152.57 102.5C150.06 92.58 154.47 82.5 157.07 77.73C156.85 83.16 158.01 97.93 175.23 108.84C175.44 108.97 175.67 109.03 175.9 109.03C176.31 109.03 176.72 108.82 176.96 108.45C177.33 107.87 177.16 107.09 176.57 106.73C157.19 94.45 159.52 77.3 159.74 76L159.73 75.99Z" fill="black"/>
<path d="M143.41 50.85C142.65 51.11 123.56 56.3 116.54 79.92L115.48 89.09V102.28C115.48 102.28 111.34 108.77 117.1 112.32C122.86 115.87 127.61 118.47 138.56 107.91C149.51 97.36 159.15 97.31 159.15 97.31C159.15 97.31 171.94 98.53 183.36 111.78C183.36 111.78 192.66 118.22 202.82 111.19C202.82 111.19 207.91 106.64 202.82 101.03C202.82 101.03 203.84 82.48 198.25 70.44C192.66 58.4 179.49 51.29 168.62 49.42C168.62 49.42 170.7 42.09 159.14 41.24C147.58 40.38 149.66 49.24 149.66 49.24L143.39 50.84L143.41 50.85Z" fill="white"/>
<path d="M203.82 102.29C203.13 102.29 202.57 101.73 202.57 101.04V89.1C202.57 67.7 185.26 50.28 163.99 50.28H156.31C135.03 50.28 117.73 67.69 117.73 89.1V101.04C117.73 101.73 117.17 102.29 116.48 102.29C115.79 102.29 115.23 101.73 115.23 101.04V89.1C115.23 66.32 133.66 47.78 156.31 47.78H163.99C186.64 47.78 205.07 66.32 205.07 89.1V101.04C205.07 101.73 204.51 102.29 203.82 102.29Z" fill="black"/>
<path d="M152.12 50.5C151.83 50.5 151.54 50.4 151.3 50.19C150.07 49.11 149.42 47.83 149.42 46.47C149.42 42.84 154.13 40 160.15 40C166.17 40 170.88 42.84 170.88 46.47C170.88 47.71 170.33 48.91 169.28 49.93C168.79 50.41 168 50.4 167.51 49.91C167.03 49.42 167.04 48.62 167.53 48.14C168.09 47.6 168.37 47.03 168.37 46.47C168.37 44.59 164.99 42.5 160.14 42.5C155.29 42.5 151.91 44.59 151.91 46.47C151.91 47.25 152.47 47.9 152.94 48.31C153.46 48.76 153.51 49.55 153.06 50.07C152.81 50.35 152.47 50.5 152.12 50.5Z" fill="black"/>
<path d="M126.91 116.44C123.39 116.44 119.54 115.2 115.7 112.18C113.01 110.06 112.35 106.19 114.2 103.38C124.01 88.48 140.46 79.59 158.2 79.59H162.1C179.84 79.59 196.29 88.48 206.1 103.38C207.95 106.19 207.29 110.05 204.6 112.18C198.38 117.08 188.7 118.89 182.14 111.28C171.95 99.45 162.56 98.6 162.06 98.57H158.2C158.2 98.57 148.59 99.19 138.16 111.28C135.55 114.31 131.52 116.44 126.91 116.44ZM158.2 82.1C141.3 82.1 125.63 90.57 116.29 104.76C115.15 106.5 115.57 108.89 117.25 110.22C121.07 113.22 129.95 116.98 136.27 109.65C147.46 96.66 157.72 96.09 158.15 96.07H162.13H162.16C162.59 96.09 172.85 96.66 184.04 109.65C190.36 116.98 199.24 113.23 203.06 110.22C204.74 108.89 205.16 106.5 204.02 104.76C194.67 90.57 179 82.1 162.11 82.1H158.21H158.2Z" fill="black"/>
<path d="M189.42 89.99C188.73 89.99 188.17 89.43 188.17 88.74V70.34C188.17 60 178.84 53.26 178.75 53.19C178.19 52.79 178.05 52.01 178.45 51.45C178.85 50.89 179.63 50.75 180.19 51.15C180.62 51.45 190.67 58.69 190.67 70.34V88.74C190.67 89.43 190.11 89.99 189.42 89.99Z" fill="black"/>
<path d="M130.85 89.99C130.16 89.99 129.6 89.43 129.6 88.74V70.34C129.6 58.69 139.65 51.45 140.08 51.15C140.64 50.75 141.42 50.88 141.82 51.45C142.22 52.01 142.09 52.79 141.52 53.19C141.43 53.26 132.1 60 132.1 70.34V88.74C132.1 89.43 131.54 89.99 130.85 89.99Z" fill="black"/>
<path d="M158.91 75.46H155.12C154.57 75.46 154.12 75.01 154.12 74.46C154.12 73.91 154.57 73.46 155.12 73.46H158.91C159.46 73.46 159.91 73.91 159.91 74.46C159.91 75.01 159.46 75.46 158.91 75.46Z" fill="black"/>
<path d="M166.52 75.46H162.73C162.18 75.46 161.73 75.01 161.73 74.46C161.73 73.91 162.18 73.46 162.73 73.46H166.52C167.07 73.46 167.52 73.91 167.52 74.46C167.52 75.01 167.07 75.46 166.52 75.46Z" fill="black"/>
<path d="M155.61 70.58C155.06 70.58 154.61 70.13 154.61 69.58V55.42C154.61 54.87 155.06 54.42 155.61 54.42C156.16 54.42 156.61 54.87 156.61 55.42V69.58C156.61 70.13 156.16 70.58 155.61 70.58Z" fill="black"/>
<path d="M166.58 70.58H153.72C153.17 70.58 152.72 70.13 152.72 69.58C152.72 69.03 153.17 68.58 153.72 68.58H165.58V66.49C165.58 65.94 166.03 65.49 166.58 65.49C167.13 65.49 167.58 65.94 167.58 66.49V69.58C167.58 70.13 167.13 70.58 166.58 70.58Z" fill="black"/>
<path d="M157.02 75.46C156.93 75.46 156.84 75.45 156.74 75.42C156.21 75.27 155.9 74.71 156.06 74.18L159.94 60.68C160.06 60.25 160.46 59.96 160.9 59.96C161.35 59.96 161.74 60.26 161.86 60.69L165.58 74.19C165.73 74.72 165.41 75.27 164.88 75.42C164.34 75.57 163.8 75.25 163.65 74.72L160.87 64.64L157.97 74.73C157.84 75.17 157.44 75.45 157.01 75.45L157.02 75.46Z" fill="black"/>
</g>
<defs>
<clipPath id="clip0_5_4784">
<rect width="212.03" height="231.07" fill="white" transform="translate(54 40)"/>
</clipPath>
</defs>
</svg>
