<svg width="320" height="320" viewBox="0 0 320 320" fill="none" xmlns="http://www.w3.org/2000/svg">
<path d="M162.85 146.93C162.85 146.93 162.89 146.98 162.91 147.01C163.02 147.15 163.12 147.29 163.22 147.44C163.43 147.73 163.63 148.02 163.82 148.32C164.21 148.91 164.56 149.52 164.89 150.15C165.13 150.61 165.82 150.79 166.26 150.51C166.73 150.21 166.88 149.64 166.62 149.14C165.91 147.79 165.07 146.53 164.12 145.34C163.97 145.15 163.64 145.05 163.41 145.05C163.16 145.05 162.87 145.16 162.7 145.34C162.53 145.53 162.4 145.78 162.41 146.05C162.42 146.33 162.53 146.54 162.7 146.76C162.75 146.82 162.8 146.89 162.85 146.95V146.93Z" fill="black"/>
<path d="M158.83 149.71C159.73 148.79 160.55 147.8 161.33 146.78C161.48 146.59 161.49 146.23 161.43 146.01C161.37 145.78 161.19 145.53 160.97 145.41C160.74 145.29 160.46 145.23 160.2 145.31C160.12 145.34 160.04 145.38 159.96 145.41C159.81 145.5 159.69 145.62 159.6 145.77C159.57 145.81 159.54 145.85 159.51 145.89C158.86 146.73 158.16 147.54 157.42 148.3C157.06 148.68 157.02 149.35 157.42 149.71C157.81 150.07 158.44 150.11 158.83 149.71Z" fill="black"/>
<path d="M168.92 148.79C169.29 149.16 169.97 149.19 170.33 148.79C170.69 148.39 170.73 147.77 170.33 147.38C169.97 147.03 169.64 146.65 169.33 146.25C168.96 145.75 168.62 145.23 168.33 144.68C168.09 144.22 167.4 144.04 166.96 144.32C166.49 144.62 166.34 145.19 166.6 145.69C167.2 146.83 167.99 147.89 168.92 148.8V148.79Z" fill="black"/>
<path d="M172.73 148.75C173 149.2 173.64 149.4 174.1 149.11C174.55 148.82 174.75 148.22 174.46 147.74C173.84 146.72 173.23 145.7 172.61 144.68C172.34 144.23 171.7 144.03 171.24 144.32C170.79 144.61 170.59 145.21 170.88 145.69C171.5 146.71 172.11 147.73 172.73 148.75Z" fill="black"/>
<path d="M154.09 148.95C154.32 149.07 154.6 149.13 154.86 149.05C154.94 149.02 155.02 148.98 155.1 148.95C155.25 148.86 155.37 148.74 155.46 148.59C155.97 147.92 156.48 147.26 156.99 146.59C157.14 146.4 157.15 146.04 157.09 145.82C157.03 145.59 156.85 145.34 156.63 145.22C156.4 145.1 156.12 145.04 155.86 145.12C155.78 145.15 155.7 145.19 155.62 145.22C155.47 145.31 155.35 145.43 155.26 145.58C154.75 146.25 154.24 146.91 153.73 147.58C153.58 147.77 153.57 148.13 153.63 148.35C153.69 148.58 153.87 148.83 154.09 148.95Z" fill="black"/>
<path d="M149.77 150.01C150.99 148.9 152.04 147.58 152.85 146.14C153.11 145.68 152.97 145.03 152.49 144.77C152.02 144.52 151.4 144.64 151.12 145.13C150.93 145.46 150.73 145.79 150.52 146.11C150.41 146.27 150.3 146.43 150.19 146.58C150.14 146.65 150.09 146.72 150.04 146.78C150.07 146.74 150.1 146.71 150.04 146.78C150.04 146.79 150.02 146.8 150.02 146.81C150.02 146.81 150.01 146.82 150 146.83C150 146.83 150 146.82 150.01 146.81C149.99 146.84 149.96 146.87 149.94 146.9C149.46 147.5 148.92 148.07 148.35 148.59C147.96 148.94 147.96 149.65 148.35 150C148.76 150.38 149.35 150.38 149.76 150L149.77 150.01Z" fill="black"/>
<path d="M150.04 146.78C150.04 146.78 150.02 146.8 150.01 146.81C150.01 146.81 150.02 146.79 150.03 146.78H150.04Z" fill="black"/>
<path d="M174.55 151.52C174.58 151.64 174.64 151.74 174.71 151.84C175.34 152.66 175.9 153.52 176.39 154.43C176.64 154.89 177.31 155.07 177.76 154.79C178.23 154.49 178.38 153.91 178.12 153.42C177.57 152.4 176.93 151.45 176.22 150.54C176.07 150.35 175.74 150.25 175.51 150.25C175.26 150.25 174.97 150.36 174.8 150.54C174.63 150.73 174.5 150.98 174.51 151.25L174.55 151.52Z" fill="black"/>
<path d="M181.3 153.74C181.58 154.11 181.84 154.49 182.1 154.88C182.39 155.32 183 155.54 183.47 155.24C183.9 154.96 184.14 154.34 183.83 153.87C182.76 152.25 181.52 150.74 180.14 149.38C179.77 149.01 179.09 148.98 178.73 149.38C178.37 149.78 178.33 150.4 178.73 150.79C179.38 151.43 180 152.1 180.59 152.81C180.73 152.98 180.87 153.15 181 153.32C181.02 153.34 181.15 153.52 181.06 153.4C180.98 153.3 181.09 153.43 181.1 153.45C181.17 153.54 181.24 153.64 181.31 153.73L181.3 153.74Z" fill="black"/>
<path d="M184.29 150.64C184.67 150.87 185.04 151.11 185.39 151.37C185.47 151.43 185.55 151.5 185.63 151.55C185.62 151.55 185.62 151.55 185.6 151.53C185.61 151.53 185.63 151.55 185.64 151.56C185.68 151.59 185.71 151.62 185.75 151.64C185.93 151.78 186.1 151.93 186.27 152.08C186.93 152.67 187.53 153.31 188.07 154.01C188.22 154.2 188.55 154.3 188.78 154.3C189.03 154.3 189.32 154.19 189.49 154.01C189.66 153.82 189.79 153.57 189.78 153.3C189.77 153.02 189.66 152.81 189.49 152.59C188.34 151.12 186.9 149.87 185.3 148.91C184.85 148.64 184.18 148.79 183.93 149.27C183.67 149.75 183.81 150.35 184.29 150.64Z" fill="black"/>
<path d="M185.61 151.53C185.48 151.45 185.55 151.49 185.61 151.53V151.53Z" fill="black"/>
<path d="M185.61 147.22C186.57 147.49 187.56 147.65 188.56 147.71C188.43 147.79 188.31 147.89 188.24 148.04C188 148.5 188.1 149.15 188.6 149.41C189.16 149.7 189.7 150.05 190.21 150.43C190.71 150.83 191.18 151.26 191.6 151.73C191.95 152.12 192.66 152.11 193.01 151.73C193.39 151.31 193.39 150.73 193.01 150.32C192.05 149.25 190.88 148.35 189.61 147.69C189.5 147.63 189.38 147.6 189.26 147.58C189.55 147.4 189.77 147.08 189.76 146.74C189.73 146.18 189.32 145.77 188.76 145.74C188.43 145.72 188.11 145.69 187.79 145.65C187.24 145.57 186.69 145.45 186.16 145.3C185.66 145.16 185.05 145.48 184.93 146C184.81 146.53 185.09 147.08 185.63 147.23L185.61 147.22Z" fill="black"/>
<path d="M192.5 146.91C193.68 147.37 194.85 147.83 196.03 148.29C196.26 148.38 196.6 148.31 196.8 148.19C197.01 148.07 197.21 147.83 197.26 147.59C197.32 147.33 197.31 147.05 197.16 146.82C197.01 146.59 196.82 146.46 196.56 146.36C195.38 145.9 194.21 145.44 193.03 144.98C192.8 144.89 192.46 144.96 192.26 145.08C192.05 145.2 191.85 145.44 191.8 145.68C191.74 145.94 191.75 146.22 191.9 146.45C192.05 146.68 192.24 146.81 192.5 146.91Z" fill="black"/>
<path d="M197.79 141.75C197.13 141.59 196.46 141.44 195.8 141.28C195.54 141.22 195.26 141.24 195.03 141.38C194.82 141.5 194.62 141.74 194.57 141.98C194.51 142.24 194.52 142.52 194.67 142.75C194.81 142.96 195.01 143.15 195.27 143.21C195.93 143.37 196.6 143.52 197.26 143.68C197.52 143.74 197.8 143.72 198.03 143.58C198.24 143.46 198.44 143.22 198.49 142.98C198.55 142.72 198.54 142.44 198.39 142.21C198.25 142 198.05 141.81 197.79 141.75Z" fill="black"/>
<path d="M199.62 138.5C199.49 138.29 199.27 138.08 199.02 138.04C198.46 137.94 197.89 137.85 197.33 137.75C197.2 137.71 197.06 137.7 196.93 137.73C196.8 137.73 196.67 137.78 196.56 137.85C196.35 137.97 196.15 138.21 196.1 138.45C196.04 138.71 196.05 138.99 196.2 139.22C196.33 139.43 196.55 139.64 196.8 139.68C197.36 139.78 197.93 139.87 198.49 139.97C198.62 140.01 198.76 140.02 198.89 139.99C199.02 139.99 199.15 139.94 199.26 139.87C199.47 139.75 199.67 139.51 199.72 139.27C199.78 139.01 199.77 138.73 199.62 138.5Z" fill="black"/>
<path d="M142.6 153.14C142.98 153.49 143.64 153.56 144.01 153.14C145.17 151.84 146.3 150.51 147.39 149.16C147.56 148.95 147.68 148.74 147.68 148.45C147.68 148.2 147.57 147.91 147.39 147.74C147.03 147.41 146.33 147.31 145.98 147.74C144.89 149.1 143.76 150.42 142.6 151.72C142.25 152.11 142.19 152.75 142.6 153.13V153.14Z" fill="black"/>
<path d="M137.22 152.27C137.15 152.51 137.18 152.83 137.32 153.04C137.59 153.46 138.23 153.72 138.69 153.4C140.1 152.41 141.45 151.33 142.73 150.18C143.12 149.83 143.11 149.12 142.73 148.77C142.31 148.39 141.73 148.4 141.32 148.77C140.72 149.31 140.11 149.83 139.48 150.33C139.33 150.45 139.18 150.57 139.03 150.69C139 150.71 138.97 150.73 138.94 150.76C138.85 150.83 138.77 150.89 138.68 150.96C138.35 151.21 138.02 151.45 137.69 151.68C137.47 151.83 137.3 152.01 137.23 152.28L137.22 152.27Z" fill="black"/>
<path d="M134.8 148.35C133.41 149.25 132.02 150.16 130.63 151.06C130.19 151.34 129.97 151.96 130.27 152.43C130.55 152.87 131.17 153.09 131.64 152.79C133.03 151.89 134.42 150.98 135.81 150.08C136.25 149.8 136.47 149.18 136.17 148.71C135.89 148.27 135.27 148.05 134.8 148.35Z" fill="black"/>
<path d="M129.18 150.17C130.1 149.5 131.02 148.84 131.93 148.17C132.15 148.01 132.32 147.84 132.39 147.57C132.46 147.33 132.43 147.01 132.29 146.8C132.15 146.59 131.95 146.4 131.69 146.34C131.44 146.28 131.13 146.29 130.92 146.44L128.17 148.44C127.95 148.6 127.78 148.77 127.71 149.04C127.64 149.28 127.67 149.6 127.81 149.81C127.95 150.02 128.15 150.21 128.41 150.27C128.66 150.33 128.97 150.32 129.18 150.17Z" fill="black"/>
<path d="M129.55 145.06C129.68 144.85 129.73 144.53 129.65 144.29C129.57 144.05 129.42 143.81 129.19 143.69C128.96 143.57 128.67 143.5 128.42 143.59C127.55 143.9 126.68 144.2 125.81 144.51C125.56 144.6 125.35 144.74 125.21 144.97C125.08 145.18 125.03 145.5 125.11 145.74C125.19 145.98 125.34 146.22 125.57 146.34C125.8 146.46 126.09 146.53 126.34 146.44C127.21 146.13 128.08 145.83 128.95 145.52C129.2 145.43 129.41 145.29 129.55 145.06Z" fill="black"/>
<path d="M128.07 141.61C128.59 141.58 129.1 141.17 129.07 140.61C129.05 140.09 128.63 139.58 128.07 139.61C127.1 139.66 126.13 139.71 125.16 139.76C124.64 139.79 124.13 140.2 124.16 140.76C124.18 141.28 124.6 141.79 125.16 141.76C126.13 141.71 127.1 141.66 128.07 141.61Z" fill="black"/>
<path d="M125.11 137.01C125.27 137.1 125.43 137.15 125.61 137.15C126.12 137.2 126.63 137.25 127.14 137.3C127.28 137.3 127.41 137.28 127.53 137.21C127.65 137.17 127.76 137.1 127.85 137C128.02 136.83 128.15 136.54 128.14 136.29C128.13 136.03 128.04 135.76 127.85 135.58C127.78 135.53 127.72 135.48 127.65 135.42C127.49 135.33 127.33 135.28 127.15 135.28C126.64 135.23 126.13 135.18 125.62 135.13C125.48 135.13 125.35 135.15 125.23 135.22C125.11 135.26 125 135.33 124.91 135.43C124.74 135.6 124.61 135.89 124.62 136.14C124.63 136.4 124.72 136.67 124.91 136.85C124.98 136.9 125.04 136.95 125.11 137.01Z" fill="black"/>
<path d="M131.55 155.89C131.97 155.58 132.4 155.3 132.86 155.06C133.32 154.82 133.5 154.13 133.22 153.69C132.92 153.22 132.35 153.07 131.85 153.33C130.61 153.98 129.49 154.89 128.6 155.97C128.43 156.18 128.31 156.39 128.31 156.68C128.31 156.93 128.42 157.22 128.6 157.39C128.79 157.57 129.04 157.69 129.31 157.68C129.56 157.67 129.85 157.59 130.02 157.39C130.47 156.84 130.99 156.34 131.55 155.89Z" fill="black"/>
<path d="M142.28 157C142.28 156.75 142.17 156.46 141.99 156.29C141.8 156.11 141.55 155.99 141.28 156C141.03 156.01 140.73 156.09 140.57 156.29C139.6 157.51 138.57 158.68 137.46 159.78C137.09 160.15 137.06 160.83 137.46 161.19C137.86 161.56 138.48 161.59 138.87 161.19C139.97 160.09 141.01 158.92 141.97 157.7C142.14 157.48 142.26 157.28 142.26 156.99L142.28 157Z" fill="black"/>
<path d="M147.28 157.02C147.22 156.79 147.04 156.54 146.82 156.42C146.38 156.19 145.69 156.27 145.45 156.78C145.13 157.48 144.77 158.16 144.36 158.82C144.16 159.14 143.95 159.46 143.74 159.77C143.63 159.93 143.52 160.08 143.41 160.23C143.38 160.27 143.35 160.31 143.32 160.34C143.32 160.34 143.31 160.35 143.3 160.37C143.28 160.39 143.27 160.41 143.26 160.42C143.22 160.47 143.19 160.51 143.15 160.56C142.98 160.77 142.86 160.98 142.86 161.27C142.86 161.52 142.97 161.81 143.15 161.98C143.51 162.31 144.22 162.42 144.56 161.98C145.59 160.69 146.48 159.3 147.18 157.8C147.3 157.55 147.36 157.3 147.28 157.03V157.02Z" fill="black"/>
<path d="M149.64 161.07C149.14 160.96 148.52 161.22 148.41 161.77C148.21 162.79 148 163.81 147.8 164.84C147.75 165.11 147.76 165.37 147.9 165.61C148.02 165.82 148.26 166.02 148.5 166.07C149 166.18 149.62 165.92 149.73 165.37C149.93 164.35 150.14 163.33 150.34 162.3C150.39 162.03 150.38 161.77 150.24 161.53C150.12 161.32 149.88 161.12 149.64 161.07Z" fill="black"/>
<path d="M151.6 165.57V168.79C151.6 169.31 152.06 169.81 152.6 169.79C153.14 169.77 153.6 169.35 153.6 168.79V165.57C153.6 165.05 153.14 164.55 152.6 164.57C152.06 164.59 151.6 165.01 151.6 165.57Z" fill="black"/>
<path d="M159.14 156.74L158.98 156.94C158.92 157.05 158.88 157.16 158.87 157.28C158.82 157.6 158.74 157.91 158.62 158.22C158.5 158.48 158.36 158.72 158.19 158.95C158.08 159.08 157.97 159.21 157.85 159.32C157.47 159.68 157.46 160.37 157.85 160.73C158.26 161.1 158.86 161.12 159.26 160.73C159.68 160.33 160.04 159.85 160.29 159.33C160.43 159.04 160.56 158.74 160.65 158.44C160.75 158.11 160.8 157.78 160.83 157.44C160.86 157.2 160.7 156.89 160.54 156.73C160.37 156.56 160.08 156.43 159.83 156.44C159.57 156.45 159.3 156.54 159.12 156.73L159.14 156.74Z" fill="black"/>
<path d="M164.98 157.08C164.84 156.86 164.63 156.69 164.38 156.62C164.14 156.55 163.82 156.58 163.61 156.72C163.4 156.86 163.21 157.06 163.15 157.32C163.09 157.58 163.11 157.86 163.25 158.09C163.78 158.93 164.39 159.73 165.07 160.45C165.24 160.63 165.53 160.74 165.78 160.74C166.03 160.74 166.32 160.63 166.49 160.45C166.87 160.04 166.87 159.44 166.49 159.04C166.2 158.73 165.93 158.41 165.68 158.08C165.44 157.76 165.2 157.42 164.98 157.08Z" fill="black"/>
<path d="M162.65 162.5V160.51C162.65 160.25 162.54 159.98 162.36 159.8C162.19 159.63 161.9 159.5 161.65 159.51C161.39 159.52 161.12 159.61 160.94 159.8C160.76 160 160.65 160.24 160.65 160.51V162.5C160.65 162.76 160.76 163.03 160.94 163.21C161.11 163.38 161.4 163.51 161.65 163.5C161.91 163.49 162.18 163.4 162.36 163.21C162.54 163.01 162.65 162.77 162.65 162.5Z" fill="black"/>
<path d="M159.14 165.52C159.02 165.31 158.78 165.11 158.54 165.06C158.28 165 158 165.01 157.77 165.16C157.55 165.3 157.38 165.5 157.31 165.76C157.23 166.08 157.12 166.39 157 166.69C156.85 167.03 156.69 167.36 156.49 167.67C156.35 167.89 156.32 168.2 156.39 168.44C156.45 168.67 156.63 168.92 156.85 169.04C157.34 169.3 157.92 169.16 158.22 168.68C158.68 167.95 159.03 167.13 159.24 166.29C159.31 166.04 159.27 165.75 159.14 165.52Z" fill="black"/>
<path d="M164.36 168.17L164.21 165.72C164.19 165.45 164.11 165.21 163.92 165.01C163.75 164.84 163.46 164.71 163.21 164.72C162.95 164.73 162.68 164.82 162.5 165.01C162.33 165.2 162.19 165.45 162.21 165.72L162.36 168.17C162.38 168.44 162.46 168.68 162.65 168.88C162.82 169.05 163.11 169.18 163.36 169.17C163.62 169.16 163.89 169.07 164.07 168.88C164.24 168.69 164.38 168.44 164.36 168.17Z" fill="black"/>
<path d="M168.13 167.3C168.37 167.37 168.69 167.34 168.9 167.2C169.36 166.9 169.54 166.32 169.26 165.83C168.78 164.99 168.21 164.21 167.57 163.48C167.41 163.29 167.1 163.19 166.86 163.19C166.62 163.19 166.32 163.3 166.15 163.48C165.98 163.67 165.85 163.92 165.86 164.19C165.87 164.46 165.97 164.69 166.15 164.9C166.29 165.06 166.43 165.23 166.56 165.4C166.91 165.86 167.24 166.34 167.53 166.85C167.65 167.07 167.89 167.24 168.13 167.31V167.3Z" fill="black"/>
<path d="M172.58 161.03C172.32 160.92 172.09 160.85 171.81 160.93C171.58 160.99 171.33 161.17 171.21 161.39C171.09 161.62 171.03 161.9 171.11 162.16C171.18 162.39 171.34 162.66 171.57 162.76C172.41 163.13 173.21 163.6 173.94 164.16C174.06 164.25 174.17 164.34 174.28 164.44C174.48 164.62 174.71 164.73 174.99 164.73C175.24 164.73 175.53 164.62 175.7 164.44C176.04 164.06 176.12 163.39 175.7 163.03C174.76 162.22 173.72 161.54 172.58 161.04V161.03Z" fill="black"/>
<path d="M180.91 161.94C181.16 161.47 181.04 160.85 180.55 160.57C179.53 160 178.52 159.43 177.5 158.86C177.04 158.6 176.39 158.74 176.13 159.22C175.88 159.69 176 160.31 176.49 160.59C177.51 161.16 178.52 161.73 179.54 162.3C180 162.56 180.65 162.42 180.91 161.94Z" fill="black"/>
<path d="M181.23 158.76C182.37 159.26 183.44 159.87 184.45 160.6C184.65 160.74 184.99 160.76 185.22 160.7C185.45 160.64 185.7 160.46 185.82 160.24C185.94 160.01 186 159.73 185.92 159.47C185.84 159.21 185.68 159.03 185.46 158.87C184.46 158.14 183.38 157.52 182.24 157.03C181.98 156.92 181.75 156.85 181.47 156.93C181.24 156.99 180.99 157.17 180.87 157.39C180.75 157.62 180.69 157.9 180.77 158.16C180.84 158.39 181 158.66 181.23 158.76Z" fill="black"/>
<path d="M187.76 155.81C187.51 155.69 187.26 155.63 186.99 155.71C186.76 155.77 186.51 155.95 186.39 156.17C186.16 156.61 186.24 157.3 186.75 157.54C187.72 158 188.69 158.46 189.66 158.92C189.91 159.04 190.16 159.1 190.43 159.02C190.66 158.96 190.91 158.78 191.03 158.56C191.26 158.12 191.18 157.43 190.67 157.19C189.7 156.73 188.73 156.27 187.76 155.81Z" fill="black"/>
<path d="M189.07 160.37C188.69 160.01 188.02 159.97 187.66 160.37C187.3 160.76 187.26 161.39 187.66 161.78C188.57 162.66 189.48 163.54 190.38 164.42C190.76 164.78 191.43 164.82 191.79 164.42C192.15 164.03 192.19 163.39 191.79 163.01C190.88 162.13 189.97 161.25 189.07 160.37Z" fill="black"/>
<path d="M183.98 164.4C183.62 164.02 182.93 164.01 182.57 164.4C182.2 164.81 182.18 165.41 182.57 165.81C183.44 166.73 184.32 167.64 185.19 168.56C185.55 168.94 186.24 168.95 186.6 168.56C186.97 168.15 186.99 167.55 186.6 167.15C185.73 166.23 184.85 165.32 183.98 164.4Z" fill="black"/>
<path d="M178.1 166.48C178.44 166.75 178.74 167.06 179.01 167.4C179.2 167.66 179.38 167.92 179.52 168.2C179.76 168.66 180.45 168.84 180.89 168.56C181.36 168.26 181.51 167.69 181.25 167.19C180.64 166.03 179.69 165.05 178.56 164.38C178.34 164.25 178.04 164.21 177.79 164.28C177.56 164.34 177.31 164.52 177.19 164.74C176.94 165.22 177.07 165.82 177.55 166.11C177.74 166.22 177.92 166.35 178.09 166.48H178.1Z" fill="black"/>
<path d="M179.01 168.7C178.81 168.56 178.46 168.54 178.24 168.6C178.01 168.66 177.76 168.84 177.64 169.06C177.52 169.29 177.46 169.57 177.54 169.83C177.62 170.09 177.78 170.27 178 170.43C178.11 170.51 178.21 170.59 178.31 170.67C179.05 171.25 179.76 171.88 180.42 172.56C180.79 172.94 181.47 172.95 181.83 172.56C182.2 172.16 182.22 171.55 181.83 171.15C180.96 170.26 180.01 169.45 179 168.71L179.01 168.7Z" fill="black"/>
<path d="M173.38 169.79C173.53 169.98 173.86 170.08 174.09 170.08C174.34 170.08 174.63 169.97 174.8 169.79C174.97 169.6 175.1 169.35 175.09 169.08L175.05 168.81C175 168.64 174.92 168.49 174.79 168.37L172.94 166.08C172.79 165.89 172.46 165.79 172.23 165.79C171.98 165.79 171.69 165.9 171.52 166.08C171.35 166.27 171.22 166.52 171.23 166.79L171.27 167.06C171.32 167.23 171.4 167.38 171.53 167.5C172.15 168.26 172.76 169.03 173.38 169.79Z" fill="black"/>
<path d="M174.01 171.35C173.91 171.14 173.63 170.95 173.41 170.89C173.17 170.82 172.85 170.85 172.64 170.99C172.43 171.13 172.24 171.33 172.18 171.59C172.17 171.68 172.16 171.77 172.14 171.86C172.14 172.04 172.19 172.21 172.28 172.36C172.69 173.28 173.1 174.2 173.51 175.12C173.61 175.33 173.89 175.52 174.11 175.58C174.35 175.65 174.67 175.62 174.88 175.48C175.09 175.34 175.28 175.14 175.34 174.88L175.38 174.61C175.38 174.43 175.33 174.26 175.24 174.11C174.83 173.19 174.42 172.27 174.01 171.35Z" fill="black"/>
<path d="M169.64 172.82C169.43 171.9 169.23 170.98 169.02 170.06C168.91 169.55 168.29 169.2 167.79 169.36C167.25 169.53 166.97 170.04 167.09 170.59C167.3 171.51 167.5 172.43 167.71 173.35C167.82 173.86 168.44 174.21 168.94 174.05C169.48 173.88 169.76 173.37 169.64 172.82Z" fill="black"/>
<path d="M165.1 172.42C164.84 172.36 164.56 172.37 164.33 172.52C164.13 172.65 163.91 172.87 163.87 173.12C163.74 174.04 163.61 174.97 163.48 175.89C163.44 176.17 163.43 176.41 163.58 176.66C163.7 176.87 163.94 177.07 164.18 177.12C164.44 177.18 164.72 177.17 164.95 177.02C165.15 176.89 165.37 176.67 165.41 176.42C165.54 175.5 165.67 174.57 165.8 173.65C165.84 173.37 165.85 173.13 165.7 172.88C165.58 172.67 165.34 172.47 165.1 172.42Z" fill="black"/>
<path d="M160.13 169.47C159.58 169.49 159.14 169.91 159.13 170.47C159.12 170.9 159.08 171.33 159.03 171.76C158.98 172.11 158.92 172.46 158.84 172.81C158.78 173.07 158.8 173.35 158.94 173.58C159.06 173.79 159.3 173.99 159.54 174.04C160.05 174.16 160.65 173.89 160.77 173.34C160.98 172.4 161.11 171.43 161.13 170.47C161.14 169.95 160.66 169.45 160.13 169.47Z" fill="black"/>
<path d="M153.77 170.73C153.51 170.67 153.23 170.68 153 170.83C152.78 170.97 152.6 171.17 152.54 171.43C152.46 171.76 152.35 172.07 152.22 172.39C152.04 172.78 151.84 173.16 151.6 173.51C151.46 173.72 151.44 174.05 151.5 174.28C151.56 174.51 151.74 174.76 151.96 174.88C152.19 175 152.47 175.06 152.73 174.98C152.99 174.9 153.17 174.75 153.33 174.52C153.85 173.75 154.24 172.87 154.47 171.97C154.53 171.71 154.5 171.43 154.37 171.2C154.25 170.99 154.01 170.79 153.77 170.74V170.73Z" fill="black"/>
<path d="M149.94 170.06C150.18 169.6 150.08 168.95 149.58 168.69C149.12 168.45 148.47 168.55 148.21 169.05C147.72 169.99 147.16 170.88 146.51 171.72C146.46 171.78 146.41 171.85 146.36 171.91C146.19 172.12 146.07 172.33 146.07 172.62C146.07 172.87 146.18 173.16 146.36 173.33C146.55 173.51 146.8 173.63 147.07 173.62C147.32 173.61 147.61 173.53 147.78 173.33C148.6 172.31 149.33 171.23 149.94 170.07V170.06Z" fill="black"/>
<path d="M147.02 168.27C147.42 167.93 147.4 167.2 147.02 166.86C146.59 166.47 146.03 166.5 145.61 166.86C144.44 167.86 143.44 169.09 142.7 170.44C142.45 170.9 142.57 171.55 143.06 171.81C143.53 172.06 144.16 171.94 144.43 171.45C144.6 171.14 144.79 170.83 144.98 170.54C145.08 170.39 145.19 170.24 145.3 170.09C145.32 170.06 145.34 170.03 145.37 170C145.42 169.94 145.47 169.88 145.52 169.81C145.98 169.25 146.48 168.74 147.03 168.27H147.02Z" fill="black"/>
<path d="M144.98 163.84C145.05 163.6 145.02 163.28 144.88 163.07C144.74 162.86 144.54 162.67 144.28 162.61C144.04 162.55 143.72 162.55 143.51 162.71C142.98 163.12 142.47 163.54 142 164.01C141.53 164.48 141.1 164.99 140.7 165.52C140.55 165.71 140.54 166.07 140.6 166.29C140.66 166.52 140.84 166.77 141.06 166.89C141.29 167.01 141.57 167.07 141.83 166.99C141.91 166.96 141.99 166.92 142.07 166.89C142.22 166.8 142.34 166.68 142.43 166.53C142.39 166.59 142.34 166.64 142.3 166.7C142.99 165.81 143.8 165 144.69 164.31C144.63 164.35 144.58 164.4 144.52 164.44C144.74 164.27 144.9 164.12 144.98 163.84Z" fill="black"/>
<path d="M136.13 165.96C136.36 165.72 136.61 165.5 136.87 165.3C137.32 164.97 137.8 164.69 138.3 164.46C138.5 164.38 138.71 164.3 138.92 164.24C139.42 164.09 139.79 163.53 139.62 163.01C139.46 162.51 138.93 162.15 138.39 162.31C137 162.73 135.73 163.5 134.72 164.54C134.36 164.92 134.32 165.58 134.72 165.95C135.11 166.31 135.75 166.35 136.13 165.95V165.96Z" fill="black"/>
<path d="M140.91 167.31C140.01 167.82 139.16 168.44 138.4 169.15C138.02 169.51 138.01 170.21 138.4 170.56C138.81 170.94 139.4 170.94 139.81 170.56C140.04 170.34 140.29 170.14 140.54 169.94C140.98 169.61 141.43 169.3 141.91 169.03C142.13 168.91 142.3 168.67 142.37 168.43C142.44 168.19 142.41 167.87 142.27 167.66C141.97 167.2 141.39 167.03 140.9 167.3L140.91 167.31Z" fill="black"/>
<path d="M160.4 174.57C160.14 174.51 159.86 174.52 159.63 174.67C159.42 174.81 159.22 175.01 159.17 175.27C159.02 176.04 158.86 176.8 158.71 177.57C158.66 177.84 158.67 178.1 158.81 178.34C158.93 178.55 159.17 178.75 159.41 178.8C159.67 178.86 159.95 178.85 160.18 178.7C160.39 178.56 160.59 178.36 160.64 178.1C160.79 177.33 160.95 176.57 161.1 175.8C161.15 175.53 161.14 175.27 161 175.03C160.88 174.82 160.64 174.62 160.4 174.57Z" fill="black"/>
<path d="M171.32 174.2C171.25 173.96 171.08 173.73 170.86 173.6C170.65 173.47 170.33 173.42 170.09 173.5C169.85 173.58 169.61 173.73 169.49 173.96C169.36 174.2 169.32 174.47 169.39 174.73C169.56 175.34 169.72 175.95 169.89 176.56C169.96 176.8 170.13 177.03 170.35 177.16C170.56 177.29 170.88 177.34 171.12 177.26C171.36 177.18 171.6 177.03 171.72 176.8C171.85 176.56 171.89 176.3 171.82 176.03C171.65 175.42 171.49 174.81 171.32 174.2Z" fill="black"/>
<path d="M150.3 171.77C150.03 171.78 149.78 171.87 149.59 172.06C148.93 172.72 148.26 173.39 147.6 174.05C147.42 174.23 147.31 174.5 147.31 174.76C147.31 175.02 147.42 175.3 147.6 175.47C147.79 175.65 148.04 175.77 148.31 175.76C148.58 175.75 148.83 175.66 149.02 175.47C149.68 174.81 150.35 174.14 151.01 173.48C151.19 173.3 151.3 173.03 151.3 172.77C151.3 172.51 151.19 172.23 151.01 172.06C150.82 171.88 150.57 171.76 150.3 171.77Z" fill="black"/>
<path d="M194.22 158.06C194.22 158.06 194.04 157.91 194.01 157.9C194.01 157.9 194.01 157.9 194 157.9C193.97 157.88 193.94 157.87 193.91 157.85C193.85 157.8 193.79 157.75 193.72 157.71C193.71 157.7 193.69 157.69 193.68 157.68C193.65 157.66 193.62 157.65 193.59 157.63C193.49 157.58 193.38 157.53 193.27 157.5C193.14 157.46 193.01 157.44 192.88 157.4C192.75 157.36 192.61 157.35 192.48 157.38C192.35 157.38 192.22 157.43 192.11 157.5C191.99 157.56 191.9 157.65 191.83 157.76C191.74 157.86 191.68 157.97 191.65 158.1C191.64 158.19 191.63 158.28 191.61 158.37C191.61 158.55 191.66 158.72 191.75 158.87C191.8 158.94 191.85 159.01 191.91 159.07C192.03 159.19 192.18 159.28 192.35 159.33C192.4 159.35 192.46 159.36 192.52 159.37C192.64 159.49 192.79 159.58 192.96 159.63C193.03 159.66 193.1 159.69 193.17 159.71C193.19 159.71 193.21 159.72 193.22 159.73C193.22 159.73 193.22 159.73 193.23 159.73C193.23 159.73 193.49 159.77 193.5 159.77C193.69 159.77 193.74 159.74 193.89 159.68C194.03 159.62 194.09 159.61 194.21 159.47C194.26 159.4 194.31 159.33 194.37 159.27C194.41 159.19 194.45 159.11 194.47 159.03C194.5 158.94 194.51 158.86 194.51 158.76L194.47 158.49C194.44 158.34 194.32 158.15 194.21 158.05L194.22 158.06Z" fill="black"/>
<path d="M150.73 151.93C150.67 151.7 150.49 151.45 150.27 151.33C150.04 151.21 149.76 151.15 149.5 151.23C149.26 151.31 149.02 151.46 148.9 151.69C148.76 151.98 148.58 152.26 148.38 152.52C148.13 152.82 147.85 153.1 147.54 153.35C147.58 153.32 147.62 153.29 147.66 153.26C147.55 153.32 147.45 153.41 147.39 153.51C147.3 153.61 147.24 153.72 147.21 153.85C147.14 154.09 147.17 154.41 147.31 154.62C147.45 154.83 147.65 155.02 147.91 155.08C148.15 155.14 148.47 155.14 148.68 154.98C149.09 154.67 149.47 154.35 149.79 153.96C150.11 153.57 150.4 153.16 150.63 152.7C150.75 152.46 150.8 152.2 150.73 151.93Z" fill="black"/>
<path d="M177.16 147.45C177.34 147.52 177.51 147.59 177.69 147.66C178.46 147.99 179.2 148.36 179.92 148.77C180.37 149.03 181.03 148.89 181.29 148.41C181.54 147.93 181.42 147.32 180.93 147.04C179.89 146.44 178.81 145.94 177.69 145.51C177.46 145.42 177.12 145.49 176.92 145.61C176.71 145.73 176.51 145.97 176.46 146.21C176.4 146.47 176.41 146.75 176.56 146.98C176.71 147.21 176.9 147.34 177.16 147.44V147.45Z" fill="black"/>
<path d="M134.29 147.91C135.38 147.51 136.47 147.1 137.55 146.7C137.8 146.61 138.01 146.48 138.15 146.24C138.28 146.03 138.33 145.71 138.25 145.47C138.1 144.99 137.54 144.58 137.02 144.77C135.93 145.17 134.84 145.58 133.76 145.98C133.51 146.07 133.3 146.2 133.16 146.44C133.03 146.65 132.98 146.97 133.06 147.21C133.21 147.69 133.77 148.1 134.29 147.91Z" fill="black"/>
<path d="M137.89 166.53C137.7 166.36 137.45 166.23 137.18 166.24C136.92 166.25 136.66 166.34 136.47 166.53C136.17 166.84 135.84 167.12 135.5 167.39C135.3 167.54 135.11 167.68 134.9 167.81C134.68 167.95 134.51 168.15 134.44 168.41C134.37 168.65 134.4 168.97 134.54 169.18C134.68 169.39 134.88 169.58 135.14 169.64C135.4 169.7 135.68 169.69 135.91 169.54C136.62 169.08 137.29 168.54 137.89 167.94C138.07 167.76 138.18 167.49 138.18 167.23C138.18 166.97 138.07 166.69 137.89 166.52V166.53Z" fill="black"/>
<path d="M168.15 154.87C168.98 154.87 169.65 154.2 169.65 153.37C169.65 152.54 168.98 151.87 168.15 151.87H155.59C154.76 151.87 154.09 152.54 154.09 153.37C154.09 154.2 154.76 154.87 155.59 154.87H168.15Z" fill="black"/>
<path d="M132.85 158.39C131.91 158.9 130.96 159.4 130.02 159.91C129.56 160.16 129.38 160.84 129.66 161.28C129.96 161.75 130.53 161.9 131.03 161.64C131.97 161.13 132.92 160.63 133.86 160.12C134.32 159.87 134.5 159.19 134.22 158.75C133.92 158.28 133.35 158.13 132.85 158.39Z" fill="black"/>
<path d="M135.05 155.95C134.87 156.15 134.76 156.38 134.76 156.66C134.76 156.91 134.87 157.2 135.05 157.37C135.24 157.55 135.49 157.67 135.76 157.66C136.02 157.65 136.29 157.57 136.47 157.37C136.63 157.19 136.82 157.02 137.01 156.87C137.27 156.69 137.54 156.52 137.82 156.4C137.94 156.34 138.03 156.25 138.1 156.14C138.19 156.04 138.25 155.93 138.28 155.8C138.35 155.56 138.32 155.24 138.18 155.03C138.04 154.82 137.84 154.63 137.58 154.57L137.31 154.53C137.13 154.53 136.96 154.58 136.81 154.67C136.51 154.8 136.22 154.97 135.96 155.16C135.63 155.4 135.32 155.66 135.05 155.96V155.95Z" fill="black"/>
<path d="M156.05 172.71C155.49 172.74 155.08 173.15 155.05 173.71C155 174.61 154.96 175.5 154.91 176.4C154.88 176.92 155.39 177.42 155.91 177.4C156.47 177.37 156.88 176.96 156.91 176.4C156.96 175.5 157 174.61 157.05 173.71C157.08 173.19 156.57 172.69 156.05 172.71Z" fill="black"/>
<path d="M196.78 153.52C195.93 153.24 195.09 152.95 194.24 152.67C193.74 152.5 193.13 152.86 193.01 153.37C192.88 153.92 193.18 154.42 193.71 154.6C194.56 154.88 195.4 155.17 196.25 155.45C196.75 155.62 197.36 155.26 197.48 154.75C197.61 154.2 197.31 153.7 196.78 153.52Z" fill="black"/>
</svg>
