<svg width="320" height="320" viewBox="0 0 320 320" fill="none" xmlns="http://www.w3.org/2000/svg">
<path d="M130.26 120.63C130.09 120.63 129.91 120.61 129.74 120.56L123.12 118.79C122.05 118.5 121.42 117.41 121.71 116.34C122 115.27 123.09 114.64 124.16 114.93L130.78 116.7C131.85 116.99 132.48 118.08 132.19 119.15C131.95 120.04 131.14 120.63 130.26 120.63Z" fill="black"/>
<path d="M194.07 120.63C193.19 120.63 192.38 120.04 192.14 119.15C191.85 118.08 192.49 116.99 193.55 116.7L200.16 114.93C201.22 114.64 202.32 115.28 202.61 116.34C202.9 117.41 202.26 118.5 201.2 118.79L194.59 120.56C194.42 120.61 194.24 120.63 194.07 120.63Z" fill="black"/>
<path d="M144.18 136.38C151.647 136.38 157.7 130.327 157.7 122.86C157.7 115.393 151.647 109.34 144.18 109.34C136.713 109.34 130.66 115.393 130.66 122.86C130.66 130.327 136.713 136.38 144.18 136.38Z" fill="black"/>
<path d="M144.18 110.59C150.96 110.59 156.45 116.08 156.45 122.86C156.45 129.64 150.96 135.13 144.18 135.13C137.4 135.13 131.91 129.64 131.91 122.86C131.91 116.08 137.4 110.59 144.18 110.59ZM144.18 108.09C136.04 108.09 129.41 114.72 129.41 122.86C129.41 131 136.04 137.63 144.18 137.63C152.32 137.63 158.95 131 158.95 122.86C158.95 114.72 152.32 108.09 144.18 108.09Z" fill="black"/>
<path d="M136.49 132.43L140.89 128.1C141.13 127.87 141.49 127.81 141.79 127.96L143.55 128.83C143.84 128.97 144.19 128.92 144.43 128.7L155.57 118.31C155.57 118.31 154.53 114.96 151.9 113.34L143.1 121.55C142.86 121.77 142.51 121.82 142.22 121.68L140.46 120.81C140.16 120.66 139.8 120.72 139.56 120.95L132.84 127.57C132.84 127.57 134.18 130.96 136.49 132.43Z" fill="white"/>
<path d="M179.9 136.38C187.367 136.38 193.42 130.327 193.42 122.86C193.42 115.393 187.367 109.34 179.9 109.34C172.433 109.34 166.38 115.393 166.38 122.86C166.38 130.327 172.433 136.38 179.9 136.38Z" fill="black"/>
<path d="M179.9 110.59C186.68 110.59 192.17 116.08 192.17 122.86C192.17 129.64 186.68 135.13 179.9 135.13C173.12 135.13 167.63 129.64 167.63 122.86C167.63 116.08 173.12 110.59 179.9 110.59ZM179.9 108.09C171.76 108.09 165.13 114.72 165.13 122.86C165.13 131 171.76 137.63 179.9 137.63C188.04 137.63 194.67 131 194.67 122.86C194.67 114.72 188.04 108.09 179.9 108.09Z" fill="black"/>
<path d="M172.22 132.43L176.62 128.1C176.86 127.87 177.22 127.81 177.52 127.96L179.28 128.83C179.57 128.97 179.92 128.92 180.16 128.7L191.3 118.31C191.3 118.31 190.26 114.96 187.63 113.34L178.83 121.55C178.59 121.77 178.24 121.82 177.95 121.68L176.19 120.81C175.89 120.66 175.53 120.72 175.29 120.95L168.57 127.57C168.57 127.57 169.91 130.96 172.22 132.43Z" fill="white"/>
<path d="M157.06 121.8C156.33 121.8 155.63 121.4 155.28 120.71C154.78 119.73 155.16 118.52 156.14 118.02C156.39 117.89 162.29 114.93 167.98 118.04C168.95 118.57 169.3 119.79 168.77 120.75C168.24 121.72 167.03 122.08 166.06 121.54C162.21 119.43 158.01 121.54 157.97 121.56C157.68 121.71 157.37 121.78 157.06 121.78V121.8Z" fill="black"/>
</svg>
